<?xml version="1.0" standalone="no"?><?xml-stylesheet type="text/css" href="https://wps.processon.com/themes/default/wps/mind/icons/icons.css" ?><!DOCTYPE svg PUBLIC "-//W3C//DTD SVG 1.1//EN" "http://www.w3.org/Graphics/SVG/1.1/DTD/svg11.dtd"><svg id="SvgjsSvg1000" xmlns="http://www.w3.org/2000/svg" version="1.1" xmlns:xlink="http://www.w3.org/1999/xlink" xmlns:svgjs="http://svgjs.com/svgjs" width="653" height="690.5"><rect fill="url(#pattern_mark)" transform="translate(-68,-46)" width="1487" height="886" id="rect_mark" pointer-events="none"></rect><defs id="SvgjsDefs1001"><marker id="SvgjsMarker1021" markerWidth="14" markerHeight="10" refX="10" refY="5" viewBox="0 0 14 10" orient="auto" markerUnits="userSpaceOnUse" stroke-dasharray="0,0"><path id="SvgjsPath1022" d="M0 0L14 5L0 10L0 0 " fill="#323232" stroke="#323232" stroke-width="1"></path></marker><marker id="SvgjsMarker1031" markerWidth="14" markerHeight="10" refX="10" refY="5" viewBox="0 0 14 10" orient="auto" markerUnits="userSpaceOnUse" stroke-dasharray="0,0"><path id="SvgjsPath1032" d="M0 0L14 5L0 10L0 0 " fill="#323232" stroke="#323232" stroke-width="1"></path></marker><marker id="SvgjsMarker1041" markerWidth="14" markerHeight="10" refX="10" refY="5" viewBox="0 0 14 10" orient="auto" markerUnits="userSpaceOnUse" stroke-dasharray="0,0"><path id="SvgjsPath1042" d="M0 0L14 5L0 10L0 0 " fill="#323232" stroke="#323232" stroke-width="1"></path></marker><marker id="SvgjsMarker1051" markerWidth="14" markerHeight="10" refX="10" refY="5" viewBox="0 0 14 10" orient="auto" markerUnits="userSpaceOnUse" stroke-dasharray="0,0"><path id="SvgjsPath1052" d="M0 0L14 5L0 10L0 0 " fill="#323232" stroke="#323232" stroke-width="1"></path></marker><marker id="SvgjsMarker1055" markerWidth="14" markerHeight="10" refX="10" refY="5" viewBox="0 0 14 10" orient="auto" markerUnits="userSpaceOnUse" stroke-dasharray="0,0"><path id="SvgjsPath1056" d="M0 0L14 5L0 10L0 0 " fill="#323232" stroke="#323232" stroke-width="1"></path></marker><marker id="SvgjsMarker1083" markerWidth="14" markerHeight="10" refX="10" refY="5" viewBox="0 0 14 10" orient="auto" markerUnits="userSpaceOnUse" stroke-dasharray="0,0"><path id="SvgjsPath1084" d="M0 0L14 5L0 10L0 0 " fill="#323232" stroke="#323232" stroke-width="1"></path></marker><marker id="SvgjsMarker1087" markerWidth="14" markerHeight="10" refX="10" refY="5" viewBox="0 0 14 10" orient="auto" markerUnits="userSpaceOnUse" stroke-dasharray="0,0"><path id="SvgjsPath1088" d="M0 0L14 5L0 10L0 0 " fill="#323232" stroke="#323232" stroke-width="1"></path></marker><marker id="SvgjsMarker1091" markerWidth="14" markerHeight="10" refX="10" refY="5" viewBox="0 0 14 10" orient="auto" markerUnits="userSpaceOnUse" stroke-dasharray="0,0"><path id="SvgjsPath1092" d="M0 0L14 5L0 10L0 0 " fill="#323232" stroke="#323232" stroke-width="1"></path></marker><marker id="SvgjsMarker1095" markerWidth="14" markerHeight="10" refX="10" refY="5" viewBox="0 0 14 10" orient="auto" markerUnits="userSpaceOnUse" stroke-dasharray="0,0"><path id="SvgjsPath1096" d="M0 0L14 5L0 10L0 0 " fill="#323232" stroke="#323232" stroke-width="1"></path></marker><marker id="SvgjsMarker1099" markerWidth="14" markerHeight="10" refX="10" refY="5" viewBox="0 0 14 10" orient="auto" markerUnits="userSpaceOnUse" stroke-dasharray="0,0"><path id="SvgjsPath1100" d="M0 0L14 5L0 10L0 0 " fill="#323232" stroke="#323232" stroke-width="1"></path></marker><marker id="SvgjsMarker1109" markerWidth="14" markerHeight="10" refX="10" refY="5" viewBox="0 0 14 10" orient="auto" markerUnits="userSpaceOnUse" stroke-dasharray="0,0"><path id="SvgjsPath1110" d="M0 0L14 5L0 10L0 0 " fill="#323232" stroke="#323232" stroke-width="1"></path></marker><marker id="SvgjsMarker1113" markerWidth="14" markerHeight="10" refX="10" refY="5" viewBox="0 0 14 10" orient="auto" markerUnits="userSpaceOnUse" stroke-dasharray="0,0"><path id="SvgjsPath1114" d="M0 0L14 5L0 10L0 0 " fill="#323232" stroke="#323232" stroke-width="1"></path></marker><marker id="SvgjsMarker1129" markerWidth="14" markerHeight="10" refX="10" refY="5" viewBox="0 0 14 10" orient="auto" markerUnits="userSpaceOnUse" stroke-dasharray="0,0"><path id="SvgjsPath1130" d="M0 0L14 5L0 10L0 0 " fill="#323232" stroke="#323232" stroke-width="1"></path></marker><marker id="SvgjsMarker1133" markerWidth="14" markerHeight="10" refX="10" refY="5" viewBox="0 0 14 10" orient="auto" markerUnits="userSpaceOnUse" stroke-dasharray="0,0"><path id="SvgjsPath1134" d="M0 0L14 5L0 10L0 0 " fill="#323232" stroke="#323232" stroke-width="1"></path></marker><marker id="SvgjsMarker1149" markerWidth="14" markerHeight="10" refX="10" refY="5" viewBox="0 0 14 10" orient="auto" markerUnits="userSpaceOnUse" stroke-dasharray="0,0"><path id="SvgjsPath1150" d="M0 0L14 5L0 10L0 0 " fill="#323232" stroke="#323232" stroke-width="1"></path></marker><marker id="SvgjsMarker1153" markerWidth="14" markerHeight="10" refX="10" refY="5" viewBox="0 0 14 10" orient="auto" markerUnits="userSpaceOnUse" stroke-dasharray="0,0"><path id="SvgjsPath1154" d="M0 0L14 5L0 10L0 0 " fill="#323232" stroke="#323232" stroke-width="1"></path></marker><marker id="SvgjsMarker1157" markerWidth="14" markerHeight="10" refX="10" refY="5" viewBox="0 0 14 10" orient="auto" markerUnits="userSpaceOnUse" stroke-dasharray="0,0"><path id="SvgjsPath1158" d="M0 0L14 5L0 10L0 0 " fill="#323232" stroke="#323232" stroke-width="1"></path></marker><marker id="SvgjsMarker1165" markerWidth="14" markerHeight="10" refX="10" refY="5" viewBox="0 0 14 10" orient="auto" markerUnits="userSpaceOnUse" stroke-dasharray="0,0"><path id="SvgjsPath1166" d="M0 0L14 5L0 10L0 0 " fill="#323232" stroke="#323232" stroke-width="1"></path></marker><marker id="SvgjsMarker1173" markerWidth="14" markerHeight="10" refX="10" refY="5" viewBox="0 0 14 10" orient="auto" markerUnits="userSpaceOnUse" stroke-dasharray="0,0"><path id="SvgjsPath1174" d="M0 0L14 5L0 10L0 0 " fill="#323232" stroke="#323232" stroke-width="1"></path></marker><marker id="SvgjsMarker1181" markerWidth="14" markerHeight="10" refX="10" refY="5" viewBox="0 0 14 10" orient="auto" markerUnits="userSpaceOnUse" stroke-dasharray="0,0"><path id="SvgjsPath1182" d="M0 0L14 5L0 10L0 0 " fill="#323232" stroke="#323232" stroke-width="1"></path></marker><marker id="SvgjsMarker1201" markerWidth="14" markerHeight="10" refX="10" refY="5" viewBox="0 0 14 10" orient="auto" markerUnits="userSpaceOnUse" stroke-dasharray="0,0"><path id="SvgjsPath1202" d="M0 0L14 5L0 10L0 0 " fill="#323232" stroke="#323232" stroke-width="1"></path></marker><marker id="SvgjsMarker1205" markerWidth="14" markerHeight="10" refX="10" refY="5" viewBox="0 0 14 10" orient="auto" markerUnits="userSpaceOnUse" stroke-dasharray="0,0"><path id="SvgjsPath1206" d="M0 0L14 5L0 10L0 0 " fill="#323232" stroke="#323232" stroke-width="1"></path></marker><marker id="SvgjsMarker1215" markerWidth="14" markerHeight="10" refX="10" refY="5" viewBox="0 0 14 10" orient="auto" markerUnits="userSpaceOnUse" stroke-dasharray="0,0"><path id="SvgjsPath1216" d="M0 0L14 5L0 10L0 0 " fill="#323232" stroke="#323232" stroke-width="1"></path></marker><marker id="SvgjsMarker1219" markerWidth="14" markerHeight="10" refX="10" refY="5" viewBox="0 0 14 10" orient="auto" markerUnits="userSpaceOnUse" stroke-dasharray="0,0"><path id="SvgjsPath1220" d="M0 0L14 5L0 10L0 0 " fill="#323232" stroke="#323232" stroke-width="1"></path></marker><marker id="SvgjsMarker1229" markerWidth="14" markerHeight="10" refX="10" refY="5" viewBox="0 0 14 10" orient="auto" markerUnits="userSpaceOnUse" stroke-dasharray="0,0"><path id="SvgjsPath1230" d="M0 0L14 5L0 10L0 0 " fill="#323232" stroke="#323232" stroke-width="1"></path></marker><pattern patternUnits="userSpaceOnUse" id="pattern_mark" width="300" height="300"><text x="-50" y="150" fill="rgba(229,229,229,0.8)" font-size="18" transform="rotate(-45, 150, 150)"></text></pattern></defs><g id="SvgjsG1007" transform="translate(74,86)"><path id="SvgjsPath1008" d="M0 19C0 -6.333333333333333 38 -6.333333333333333 38 19C38 44.333333333333336 0 44.333333333333336 0 19Z " stroke="rgba(50,50,50,1)" stroke-width="2" fill-opacity="1" fill="#ffffff"></path><g id="SvgjsG1009"><text id="SvgjsText1010" font-family="微软雅黑" text-anchor="middle" font-size="13px" width="18px" fill="#323232" font-weight="400" align="middle" lineHeight="125%" font-style="" opacity="1" y="8.375" transform="rotate(0)"><tspan id="SvgjsTspan1011" dy="16" x="19"><tspan id="SvgjsTspan1012" style="text-decoration:;">s_t</tspan></tspan></text></g></g><g id="SvgjsG1013" transform="translate(172,70)"><path id="SvgjsPath1014" d="M0 4Q0 0 4 0L96 0Q100 0 100 4L100 66Q100 70 96 70L4 70Q0 70 0 66Z " stroke="rgba(50,50,50,1)" stroke-width="2" fill-opacity="1" fill="#ffffff"></path><g id="SvgjsG1015"><text id="SvgjsText1016" font-family="微软雅黑" text-anchor="middle" font-size="13px" width="80px" fill="#323232" font-weight="400" align="middle" lineHeight="125%" font-style="" opacity="1" y="24.375" transform="rotate(0)"><tspan id="SvgjsTspan1017" dy="16" x="50"><tspan id="SvgjsTspan1018" style="text-decoration:;">Actor</tspan></tspan></text></g></g><g id="SvgjsG1019"><path id="SvgjsPath1020" d="M113 105L142 105L142 105L168.39999999999998 105 " stroke="#323232" stroke-width="2" fill="none" marker-end="url(#SvgjsMarker1021)"></path></g><g id="SvgjsG1023" transform="translate(332,86)"><path id="SvgjsPath1024" d="M0 19C0 -6.333333333333333 38 -6.333333333333333 38 19C38 44.333333333333336 0 44.333333333333336 0 19Z " stroke="rgba(50,50,50,1)" stroke-width="2" fill-opacity="1" fill="#ffffff"></path><g id="SvgjsG1025"><text id="SvgjsText1026" font-family="微软雅黑" text-anchor="middle" font-size="13px" width="18px" fill="#323232" font-weight="400" align="middle" lineHeight="125%" font-style="" opacity="1" y="8.375" transform="rotate(0)"><tspan id="SvgjsTspan1027" dy="16" x="19"><tspan id="SvgjsTspan1028" style="text-decoration:;">a_t</tspan></tspan></text></g></g><g id="SvgjsG1029"><path id="SvgjsPath1030" d="M273 105L302 105L302 105L328.4 105 " stroke="#323232" stroke-width="2" fill="none" marker-end="url(#SvgjsMarker1031)"></path></g><g id="SvgjsG1033" transform="translate(430,70)"><path id="SvgjsPath1034" d="M0 35L16.666666666666668 0L83.33333333333333 0L100 35L83.33333333333333 70L16.666666666666668 70L0 35Z " stroke="rgba(50,50,50,1)" stroke-width="2" fill-opacity="1" fill="#ffffff"></path><g id="SvgjsG1035"><text id="SvgjsText1036" font-family="微软雅黑" text-anchor="middle" font-size="13px" width="80px" fill="#323232" font-weight="400" align="middle" lineHeight="125%" font-style="" opacity="1" y="24.375" transform="rotate(0)"><tspan id="SvgjsTspan1037" dy="16" x="50"><tspan id="SvgjsTspan1038" style="text-decoration:;">Env</tspan></tspan></text></g></g><g id="SvgjsG1039"><path id="SvgjsPath1040" d="M371 105L400 105L400 105L426.4 105 " stroke="#323232" stroke-width="2" fill="none" marker-end="url(#SvgjsMarker1041)"></path></g><g id="SvgjsG1043" transform="translate(590,86)"><path id="SvgjsPath1044" d="M0 19C0 -6.333333333333333 38 -6.333333333333333 38 19C38 44.333333333333336 0 44.333333333333336 0 19Z " stroke="rgba(50,50,50,1)" stroke-width="2" fill-opacity="1" fill="#ffffff"></path><g id="SvgjsG1045"><text id="SvgjsText1046" font-family="微软雅黑" text-anchor="middle" font-size="13px" width="18px" fill="#323232" font-weight="400" align="middle" lineHeight="125%" font-style="" opacity="1" y="8.375" transform="rotate(0)"><tspan id="SvgjsTspan1047" dy="16" x="19"><tspan id="SvgjsTspan1048" style="text-decoration:;">r_t</tspan></tspan></text></g></g><g id="SvgjsG1049"><path id="SvgjsPath1050" d="M531 105L560 105L560 105L586.4 105 " stroke="#323232" stroke-width="2" fill="none" marker-end="url(#SvgjsMarker1051)"></path></g><g id="SvgjsG1053"><path id="SvgjsPath1054" d="M531 105L560 105L560 25L93 25L93 82.4 " stroke="#323232" stroke-width="2" fill="none" marker-end="url(#SvgjsMarker1055)"></path></g><g id="SvgjsG1057" transform="translate(81,307)"><path id="SvgjsPath1058" d="M0 4Q0 0 4 0L96 0Q100 0 100 4L100 66Q100 70 96 70L4 70Q0 70 0 66Z " stroke="rgba(50,50,50,1)" stroke-width="2" fill-opacity="1" fill="#ffffff"></path><g id="SvgjsG1059"><text id="SvgjsText1060" font-family="微软雅黑" text-anchor="middle" font-size="13px" width="80px" fill="#323232" font-weight="400" align="middle" lineHeight="125%" font-style="" opacity="1" y="16.375" transform="rotate(0)"><tspan id="SvgjsTspan1061" dy="16" x="50"><tspan id="SvgjsTspan1062" style="text-decoration:;">target </tspan></tspan><tspan id="SvgjsTspan1063" dy="16" x="50"><tspan id="SvgjsTspan1064" style="text-decoration:;">critic1 </tspan></tspan></text></g></g><g id="SvgjsG1065" transform="translate(213,307)"><path id="SvgjsPath1066" d="M0 4Q0 0 4 0L96 0Q100 0 100 4L100 66Q100 70 96 70L4 70Q0 70 0 66Z " stroke="rgba(50,50,50,1)" stroke-width="2" fill-opacity="1" fill="#ffffff"></path><g id="SvgjsG1067"><text id="SvgjsText1068" font-family="微软雅黑" text-anchor="middle" font-size="13px" width="80px" fill="#323232" font-weight="400" align="middle" lineHeight="125%" font-style="" opacity="1" y="16.375" transform="rotate(0)"><tspan id="SvgjsTspan1069" dy="16" x="50"><tspan id="SvgjsTspan1070" style="text-decoration:;">target </tspan></tspan><tspan id="SvgjsTspan1071" dy="16" x="50"><tspan id="SvgjsTspan1072" style="text-decoration:;">critic2 </tspan></tspan></text></g></g><g id="SvgjsG1073" transform="translate(232,196.5)"><path id="SvgjsPath1074" d="M0 0L238 0L238 56L0 56Z " stroke="rgba(50,50,50,1)" stroke-width="2" fill-opacity="1" fill="#ffffff"></path><g id="SvgjsG1075"><text id="SvgjsText1076" font-family="微软雅黑" text-anchor="middle" font-size="13px" width="218px" fill="#323232" font-weight="400" align="middle" lineHeight="125%" font-style="" opacity="1" y="9.375" transform="rotate(0)"><tspan id="SvgjsTspan1077" dy="16" x="119"><tspan id="SvgjsTspan1078" style="text-decoration:;">replay buffer</tspan></tspan><tspan id="SvgjsTspan1079" dy="16" x="119"><tspan id="SvgjsTspan1080" style="text-decoration:;">(s, a, r, s')</tspan></tspan></text></g></g><g id="SvgjsG1081"><path id="SvgjsPath1082" d="M93 125L93 160.25L351 160.25L351 192.9 " stroke-dasharray="8,5" stroke="#323232" stroke-width="2" fill="none" marker-end="url(#SvgjsMarker1083)"></path></g><g id="SvgjsG1085"><path id="SvgjsPath1086" d="M351 125L351 160.25L351 160.25L351 192.9 " stroke-dasharray="8,5" stroke="#323232" stroke-width="2" fill="none" marker-end="url(#SvgjsMarker1087)"></path></g><g id="SvgjsG1089"><path id="SvgjsPath1090" d="M609 125L609 160.25L351 160.25L351 192.9 " stroke-dasharray="8,5" stroke="#323232" stroke-width="2" fill="none" marker-end="url(#SvgjsMarker1091)"></path></g><g id="SvgjsG1093"><path id="SvgjsPath1094" d="M351 253.5L351 279.75L131 279.75L131 303.4 " stroke="#323232" stroke-width="2" fill="none" marker-end="url(#SvgjsMarker1095)"></path></g><g id="SvgjsG1097"><path id="SvgjsPath1098" d="M351 253.5L351 279.75L263 279.75L263 303.4 " stroke="#323232" stroke-width="2" fill="none" marker-end="url(#SvgjsMarker1099)"></path></g><g id="SvgjsG1101" transform="translate(138,424.5)"><path id="SvgjsPath1102" d="M0 0L117 0L117 44.5L0 44.5Z " stroke="rgba(50,50,50,1)" stroke-width="2" fill-opacity="1" fill="#ffffff"></path><g id="SvgjsG1103"><text id="SvgjsText1104" font-family="微软雅黑" text-anchor="middle" font-size="13px" width="97px" fill="#323232" font-weight="400" align="middle" lineHeight="125%" font-style="" opacity="1" y="11.625" transform="rotate(0)"><tspan id="SvgjsTspan1105" dy="16" x="58.5"><tspan id="SvgjsTspan1106" style="text-decoration:;">TD target</tspan></tspan></text></g></g><g id="SvgjsG1107"><path id="SvgjsPath1108" d="M131 378L131 400.75L196.5 400.75L196.5 420.9 " stroke="#323232" stroke-width="2" fill="none" marker-end="url(#SvgjsMarker1109)"></path></g><g id="SvgjsG1111"><path id="SvgjsPath1112" d="M263 378L263 400.75L196.5 400.75L196.5 420.9 " stroke="#323232" stroke-width="2" fill="none" marker-end="url(#SvgjsMarker1113)"></path></g><g id="SvgjsG1115" transform="translate(80.5,516.5)"><path id="SvgjsPath1116" d="M0 4Q0 0 4 0L96 0Q100 0 100 4L100 66Q100 70 96 70L4 70Q0 70 0 66Z " stroke="rgba(50,50,50,1)" stroke-width="2" fill-opacity="1" fill="#ffffff"></path><g id="SvgjsG1117"><text id="SvgjsText1118" font-family="微软雅黑" text-anchor="middle" font-size="13px" width="80px" fill="#323232" font-weight="400" align="middle" lineHeight="125%" font-style="" opacity="1" y="24.375" transform="rotate(0)"><tspan id="SvgjsTspan1119" dy="16" x="50"><tspan id="SvgjsTspan1120" style="text-decoration:;">critic1 </tspan></tspan></text></g></g><g id="SvgjsG1121" transform="translate(212.5,516.5)"><path id="SvgjsPath1122" d="M0 4Q0 0 4 0L96 0Q100 0 100 4L100 66Q100 70 96 70L4 70Q0 70 0 66Z " stroke="rgba(50,50,50,1)" stroke-width="2" fill-opacity="1" fill="#ffffff"></path><g id="SvgjsG1123"><text id="SvgjsText1124" font-family="微软雅黑" text-anchor="middle" font-size="13px" width="80px" fill="#323232" font-weight="400" align="middle" lineHeight="125%" font-style="" opacity="1" y="24.375" transform="rotate(0)"><tspan id="SvgjsTspan1125" dy="16" x="50"><tspan id="SvgjsTspan1126" style="text-decoration:;">critic2 </tspan></tspan></text></g></g><g id="SvgjsG1127"><path id="SvgjsPath1128" d="M196.5 470L196.5 492.75L130.5 492.75L130.5 512.9 " stroke="#323232" stroke-width="2" fill="none" marker-end="url(#SvgjsMarker1129)"></path></g><g id="SvgjsG1131"><path id="SvgjsPath1132" d="M196.5 470L196.5 492.75L262.5 492.75L262.5 512.9 " stroke="#323232" stroke-width="2" fill="none" marker-end="url(#SvgjsMarker1133)"></path></g><g id="SvgjsG1135" transform="translate(80.5,620.5)"><path id="SvgjsPath1136" d="M0 0L100 0L100 44.5L0 44.5Z " stroke="rgba(50,50,50,1)" stroke-width="2" fill-opacity="1" fill="#ffffff"></path><g id="SvgjsG1137"><text id="SvgjsText1138" font-family="微软雅黑" text-anchor="middle" font-size="13px" width="80px" fill="#323232" font-weight="400" align="middle" lineHeight="125%" font-style="" opacity="1" y="11.625" transform="rotate(0)"><tspan id="SvgjsTspan1139" dy="16" x="50"><tspan id="SvgjsTspan1140" style="text-decoration:;">TD error1</tspan></tspan></text></g></g><g id="SvgjsG1141" transform="translate(212.5,620.5)"><path id="SvgjsPath1142" d="M0 0L100 0L100 44.5L0 44.5Z " stroke="rgba(50,50,50,1)" stroke-width="2" fill-opacity="1" fill="#ffffff"></path><g id="SvgjsG1143"><text id="SvgjsText1144" font-family="微软雅黑" text-anchor="middle" font-size="13px" width="80px" fill="#323232" font-weight="400" align="middle" lineHeight="125%" font-style="" opacity="1" y="11.625" transform="rotate(0)"><tspan id="SvgjsTspan1145" dy="16" x="50"><tspan id="SvgjsTspan1146" style="text-decoration:;">TD error2</tspan></tspan></text></g></g><g id="SvgjsG1147"><path id="SvgjsPath1148" d="M130.5 587.5L130.5 603.5L130.5 603.5L130.5 616.9 " stroke="#323232" stroke-width="2" fill="none" marker-end="url(#SvgjsMarker1149)"></path></g><g id="SvgjsG1151"><path id="SvgjsPath1152" d="M262.5 587.5L262.5 603.5L262.5 603.5L262.5 616.9 " stroke="#323232" stroke-width="2" fill="none" marker-end="url(#SvgjsMarker1153)"></path></g><g id="SvgjsG1155"><path id="SvgjsPath1156" d="M79.5 642.75L50.5 642.75L50.5 563L76.9 563 " stroke="#323232" stroke-width="2" fill="none" marker-end="url(#SvgjsMarker1157)"></path><rect id="SvgjsRect1159" width="29" height="16" x="36" y="596.175" fill="#ffffff"></rect><text id="SvgjsText1160" font-family="微软雅黑" text-anchor="middle" font-size="13px" width="29px" fill="#323232" font-weight="400" align="top" lineHeight="16px" font-style="" opacity="1" y="593.55" transform="rotate(0)"><tspan id="SvgjsTspan1161" dy="16" x="50.5"><tspan id="SvgjsTspan1162" style="text-decoration:;">train</tspan></tspan></text></g><g id="SvgjsG1163"><path id="SvgjsPath1164" d="M313.5 642.75L342.5 642.75L342.5 561L316.1 561 " stroke="#323232" stroke-width="2" fill="none" marker-end="url(#SvgjsMarker1165)"></path><rect id="SvgjsRect1167" width="29" height="16" x="328" y="595.1750000000001" fill="#ffffff"></rect><text id="SvgjsText1168" font-family="微软雅黑" text-anchor="middle" font-size="13px" width="29px" fill="#323232" font-weight="400" align="top" lineHeight="16px" font-style="" opacity="1" y="592.5500000000001" transform="rotate(0)"><tspan id="SvgjsTspan1169" dy="16" x="342.5"><tspan id="SvgjsTspan1170" style="text-decoration:;">train</tspan></tspan></text></g><g id="SvgjsG1171"><path id="SvgjsPath1172" d="M79.5 535L50.5 535L50.5 342L76.9 342 " stroke="#323232" stroke-width="2" fill="none" marker-end="url(#SvgjsMarker1173)"></path><rect id="SvgjsRect1175" width="71" height="16" x="15" y="431.79999999999995" fill="#ffffff"></rect><text id="SvgjsText1176" font-family="微软雅黑" text-anchor="middle" font-size="13px" width="71px" fill="#323232" font-weight="400" align="top" lineHeight="16px" font-style="" opacity="1" y="429.17499999999995" transform="rotate(0)"><tspan id="SvgjsTspan1177" dy="16" x="50.5"><tspan id="SvgjsTspan1178" style="text-decoration:;">soft update</tspan></tspan></text></g><g id="SvgjsG1179"><path id="SvgjsPath1180" d="M313 529L342 529L342 342L315.6 342 " stroke="#323232" stroke-width="2" fill="none" marker-end="url(#SvgjsMarker1181)"></path><rect id="SvgjsRect1183" width="71" height="16" x="306.5" y="428.80000000000007" fill="#ffffff"></rect><text id="SvgjsText1184" font-family="微软雅黑" text-anchor="middle" font-size="13px" width="71px" fill="#323232" font-weight="400" align="top" lineHeight="16px" font-style="" opacity="1" y="426.17500000000007" transform="rotate(0)"><tspan id="SvgjsTspan1185" dy="16" x="342"><tspan id="SvgjsTspan1186" style="text-decoration:;">soft update</tspan></tspan></text></g><g id="SvgjsG1187" transform="translate(396,307)"><path id="SvgjsPath1188" d="M0 4Q0 0 4 0L96 0Q100 0 100 4L100 66Q100 70 96 70L4 70Q0 70 0 66Z " stroke="rgba(50,50,50,1)" stroke-width="2" fill-opacity="1" fill="#ffffff"></path><g id="SvgjsG1189"><text id="SvgjsText1190" font-family="微软雅黑" text-anchor="middle" font-size="13px" width="80px" fill="#323232" font-weight="400" align="middle" lineHeight="125%" font-style="" opacity="1" y="24.375" transform="rotate(0)"><tspan id="SvgjsTspan1191" dy="16" x="50"><tspan id="SvgjsTspan1192" style="text-decoration:;">critic1 </tspan></tspan></text></g></g><g id="SvgjsG1193" transform="translate(528,307)"><path id="SvgjsPath1194" d="M0 4Q0 0 4 0L96 0Q100 0 100 4L100 66Q100 70 96 70L4 70Q0 70 0 66Z " stroke="rgba(50,50,50,1)" stroke-width="2" fill-opacity="1" fill="#ffffff"></path><g id="SvgjsG1195"><text id="SvgjsText1196" font-family="微软雅黑" text-anchor="middle" font-size="13px" width="80px" fill="#323232" font-weight="400" align="middle" lineHeight="125%" font-style="" opacity="1" y="24.375" transform="rotate(0)"><tspan id="SvgjsTspan1197" dy="16" x="50"><tspan id="SvgjsTspan1198" style="text-decoration:;">critic2 </tspan></tspan></text></g></g><g id="SvgjsG1199"><path id="SvgjsPath1200" d="M351 253.5L351 279.75L446 279.75L446 303.4 " stroke="#323232" stroke-width="2" fill="none" marker-end="url(#SvgjsMarker1201)"></path></g><g id="SvgjsG1203"><path id="SvgjsPath1204" d="M351 253.5L351 279.75L578 279.75L578 303.4 " stroke="#323232" stroke-width="2" fill="none" marker-end="url(#SvgjsMarker1205)"></path></g><g id="SvgjsG1207" transform="translate(451,441.5)"><path id="SvgjsPath1208" d="M0 0L117 0L117 44.5L0 44.5Z " stroke="rgba(50,50,50,1)" stroke-width="2" fill-opacity="1" fill="#ffffff"></path><g id="SvgjsG1209"><text id="SvgjsText1210" font-family="微软雅黑" text-anchor="middle" font-size="13px" width="97px" fill="#323232" font-weight="400" align="middle" lineHeight="125%" font-style="" opacity="1" y="11.625" transform="rotate(0)"><tspan id="SvgjsTspan1211" dy="16" x="58.5"><tspan id="SvgjsTspan1212" style="text-decoration:;">q value</tspan></tspan></text></g></g><g id="SvgjsG1213"><path id="SvgjsPath1214" d="M446 378L446 409.25L509.5 409.25L509.5 437.9 " stroke="#323232" stroke-width="2" fill="none" marker-end="url(#SvgjsMarker1215)"></path></g><g id="SvgjsG1217"><path id="SvgjsPath1218" d="M578 378L578 409.25L509.5 409.25L509.5 437.9 " stroke="#323232" stroke-width="2" fill="none" marker-end="url(#SvgjsMarker1219)"></path></g><g id="SvgjsG1221" transform="translate(459.5,550.5)"><path id="SvgjsPath1222" d="M0 4Q0 0 4 0L96 0Q100 0 100 4L100 66Q100 70 96 70L4 70Q0 70 0 66Z " stroke="rgba(50,50,50,1)" stroke-width="2" fill-opacity="1" fill="#ffffff"></path><g id="SvgjsG1223"><text id="SvgjsText1224" font-family="微软雅黑" text-anchor="middle" font-size="13px" width="80px" fill="#323232" font-weight="400" align="middle" lineHeight="125%" font-style="" opacity="1" y="24.375" transform="rotate(0)"><tspan id="SvgjsTspan1225" dy="16" x="50"><tspan id="SvgjsTspan1226" style="text-decoration:;">Actor</tspan></tspan></text></g></g><g id="SvgjsG1227"><path id="SvgjsPath1228" d="M509.5 487L509.5 518.25L509.5 518.25L509.5 546.9 " stroke="#323232" stroke-width="2" fill="none" marker-end="url(#SvgjsMarker1229)"></path><rect id="SvgjsRect1231" width="29" height="16" x="494.5" y="505" fill="#ffffff"></rect><text id="SvgjsText1232" font-family="微软雅黑" text-anchor="middle" font-size="13px" width="29px" fill="#323232" font-weight="400" align="top" lineHeight="16px" font-style="" opacity="1" y="502.375" transform="rotate(0)"><tspan id="SvgjsTspan1233" dy="16" x="509"><tspan id="SvgjsTspan1234" style="text-decoration:;">train</tspan></tspan></text></g></svg>